<?xml version="1.0" standalone="no"?>
<!DOCTYPE svg PUBLIC "-//W3C//DTD SVG 20010904//EN"
 "http://www.w3.org/TR/2001/REC-SVG-20010904/DTD/svg10.dtd">
<svg version="1.0" xmlns="http://www.w3.org/2000/svg"
 width="700.000000pt" height="700.000000pt" viewBox="0 0 700.000000 700.000000"
 preserveAspectRatio="xMidYMid meet">
<metadata>
Created by potrace 1.11, written by Peter Selinger 2001-2013
</metadata>
<g transform="translate(0.000000,700.000000) scale(0.100000,-0.100000)"
fill="#000000" stroke="none">
<path d="M4710 6989 c-8 -5 -91 -46 -185 -90 -168 -80 -256 -122 -530 -254
-250 -121 -388 -187 -470 -225 -44 -21 -156 -74 -248 -119 -93 -45 -217 -105
-275 -133 -225 -107 -332 -158 -477 -228 -165 -80 -342 -165 -510 -245 -114
-54 -286 -137 -485 -232 -63 -31 -175 -84 -248 -119 -72 -35 -194 -94 -270
-130 -75 -37 -177 -86 -227 -109 -49 -23 -157 -75 -240 -115 -82 -40 -202 -97
-265 -127 -63 -31 -152 -73 -197 -95 l-82 -39 35 -75 c76 -165 104 -225 164
-349 34 -71 78 -164 97 -205 20 -41 58 -122 85 -180 28 -58 61 -130 75 -160
14 -30 59 -124 99 -209 41 -84 74 -155 74 -156 0 -2 39 -83 86 -181 47 -99 95
-199 106 -224 11 -25 45 -97 76 -160 30 -63 71 -151 92 -195 21 -44 61 -129
90 -190 29 -60 65 -137 80 -170 15 -33 54 -114 85 -180 32 -66 72 -151 90
-190 18 -38 56 -119 85 -180 29 -60 87 -184 130 -275 43 -91 92 -196 110 -233
l32 -68 19 38 c18 37 132 274 230 481 27 56 71 148 98 205 27 56 79 165 116
242 90 188 170 355 210 440 18 39 70 147 115 240 45 94 97 202 115 240 33 71
94 198 205 430 34 72 82 171 105 220 44 92 118 246 220 460 143 299 179 375
210 440 18 39 74 155 124 259 50 103 91 189 91 191 0 1 50 105 110 230 61 124
110 228 110 229 0 2 42 90 94 197 51 107 121 253 155 324 33 72 65 137 69 145
8 12 43 17 91 11 5 -1 22 -27 37 -58 15 -32 47 -101 72 -153 24 -52 64 -135
87 -185 23 -49 66 -139 95 -200 29 -60 73 -153 98 -205 24 -52 72 -151 105
-220 32 -69 72 -152 87 -185 15 -33 56 -118 90 -190 34 -71 77 -161 95 -200
18 -38 56 -119 85 -180 29 -60 72 -150 95 -200 47 -100 110 -233 192 -405 31
-63 68 -142 83 -175 16 -33 56 -118 90 -190 34 -71 77 -161 95 -200 18 -38 61
-128 95 -200 34 -71 77 -161 95 -200 18 -38 58 -124 90 -190 31 -66 73 -154
92 -195 20 -41 63 -133 97 -205 35 -71 86 -180 115 -241 l53 -112 117 55 c64
31 148 70 186 88 39 18 120 56 180 85 61 29 152 72 203 96 51 24 91 47 89 51
-6 10 -105 216 -162 338 -83 175 -143 301 -200 420 -80 166 -145 303 -198 415
-24 52 -75 158 -112 235 -37 77 -84 176 -105 220 -21 44 -66 139 -100 210 -78
162 -150 313 -205 430 -24 50 -68 144 -100 210 -31 66 -76 161 -100 210 -70
148 -139 292 -205 430 -34 72 -78 164 -97 205 -20 41 -73 153 -119 248 -46 96
-84 175 -84 177 0 1 -43 92 -96 201 -53 110 -104 217 -114 239 -10 22 -58 123
-107 225 -49 102 -104 218 -123 258 -34 75 -36 77 -60 61z"/>
<path d="M4127 4674 c-8 -16 -53 -114 -100 -219 -74 -165 -331 -735 -404 -895
-14 -30 -45 -100 -70 -155 -25 -55 -58 -129 -75 -165 -17 -36 -67 -148 -113
-250 -100 -223 -235 -523 -381 -843 -30 -65 -54 -120 -54 -122 0 -2 -20 -46
-44 -97 -24 -51 -61 -133 -84 -183 -22 -49 -51 -115 -65 -145 -14 -30 -45
-100 -70 -155 -25 -55 -61 -135 -81 -178 -20 -43 -36 -80 -36 -82 0 -2 -18
-42 -41 -89 l-40 -86 -353 -2 -352 -3 250 -502 251 -503 360 171 c198 94 387
184 420 199 80 38 243 115 390 185 66 32 156 74 200 95 76 36 169 80 370 175
50 23 131 62 180 86 50 23 92 43 95 44 3 1 48 22 100 47 110 52 251 119 382
182 51 24 136 64 188 89 52 24 129 61 170 80 107 49 304 143 377 179 l61 30
-23 51 c-12 29 -37 84 -55 122 -18 39 -51 113 -75 165 -23 52 -50 111 -59 130
l-18 36 -776 -1 c-427 -1 -783 1 -790 3 -7 3 -9 9 -4 16 5 6 67 149 138 318
l129 308 513 0 c281 0 512 2 512 4 0 4 -142 318 -268 591 -32 72 -69 150 -80
175 -11 25 -72 158 -135 295 -63 138 -165 360 -227 495 -61 135 -123 270 -137
300 -14 30 -34 73 -44 94 l-17 39 -15 -29z"/>
</g>
</svg>
