<svg width="220" height="48" viewBox="0 0 220 48" fill="none" xmlns="http://www.w3.org/2000/svg">
<g clip-path="url(#clip0)">
<path d="M22.0519 31.9135H31.6509L23.0896 13.7514L7.78302 47.4811H0L22.8302 0H23.0896H23.6085L46.1792 47.4811H38.6557L33.9859 37.8811H19.4575L22.0519 31.9135Z" fill="white"/>
<path d="M48.2548 31.9135C48.2548 21.7946 55.2595 15.827 64.5991 15.827C70.5661 15.827 74.717 18.6811 75.2359 19.2L73.9387 25.1676C73.9387 25.1676 70.0472 21.7946 64.8585 21.7946C59.4104 21.7946 55 25.427 55 31.9135C55 38.4 59.151 42.2919 64.8585 42.2919C69.7878 42.2919 73.1604 39.4378 73.4199 39.1784L76.5331 44.627C72.3821 47.2216 68.75 48.2595 64.8585 48.2595C55.2595 48 48.2548 41.773 48.2548 31.9135Z" fill="white"/>
<path d="M81.4623 16.3459V10.1189L88.2076 8.56213V16.3459H95.9906V22.054H88.2076V36.0648C88.2076 41.7729 89.5047 42.8108 96.5095 42.2919L95.2123 48H91.8396C84.0566 48 81.4623 44.3675 81.4623 36.0648V21.7946V16.3459Z" fill="white"/>
<path d="M108.703 32.4324C108.703 39.1784 110 42.0324 115.189 42.0324C120.377 42.0324 122.972 37.6216 122.972 31.9135V16.3459H129.717V47.4811H122.972V42.8108C121.156 45.9243 118.042 47.7405 113.891 47.7405C105.071 47.7405 101.958 42.2919 101.958 32.4324V16.3459H108.703V32.4324Z" fill="white"/>
<path d="M151.509 15.827C141.391 15.827 135.684 23.0919 135.684 31.9135C135.684 40.9946 140.613 47.7405 149.953 47.7405C154.623 47.7405 157.736 45.1459 159.552 42.0324V47.4811H166.038V21.0162C165 19.9784 160.071 15.827 151.509 15.827ZM159.292 29.3189C159.292 37.1027 155.92 42.0324 150.472 42.0324C144.764 42.0324 142.17 37.8811 142.17 32.4324C142.17 26.7243 145.283 22.0541 151.509 22.0541C156.179 22.0541 158.514 23.6108 159.292 24.1297V29.3189Z" fill="white"/>
<path d="M173.302 16.3459V10.1189L180.047 8.56213V16.3459H187.83V22.054H180.047V36.0648C180.047 41.7729 181.344 42.8108 188.349 42.2919L187.052 48H183.679C175.896 48 173.302 44.3675 173.302 36.0648V21.7946V16.3459Z" fill="white"/>
<path d="M220 30.0973C220 21.0162 213.774 15.827 205.991 15.827C197.429 15.827 191.203 22.3135 191.203 31.9135C191.203 41.773 197.429 48 207.547 48C211.698 48 215.071 47.2216 218.962 44.3676L215.59 39.1784C214.293 40.2162 211.958 42.0324 207.547 42.0324C202.099 42.0324 197.948 39.1784 197.948 33.2108H220C220 33.2108 220 31.6541 220 30.0973ZM198.208 28.0216C199.505 23.6108 202.618 21.2757 206.25 21.2757C210.142 21.2757 213.514 23.6108 214.033 28.0216H198.208Z" fill="white"/>
</g>
<defs>
<clipPath id="clip0">
<rect width="220" height="48" fill="white"/>
</clipPath>
</defs>
</svg>
